<svg width="32" height="32" viewBox="0 0 32 32" fill="none" xmlns="http://www.w3.org/2000/svg">
    <g filter="url(#9kqbont1ca)">
        <path fill-rule="evenodd" clip-rule="evenodd" d="M16 29c7.18 0 13-5.82 13-13S23.18 3 16 3 3 8.82 3 16s5.82 13 13 13zm0-22a2 2 0 0 1 2 2v5h5a2 2 0 1 1 0 4h-7a2 2 0 0 1-2-2V9a2 2 0 0 1 2-2z" fill="#000000"/>
    </g>
    <defs>
        <filter id="9kqbont1ca" x="2" y="2" width="28" height="28" filterUnits="userSpaceOnUse" color-interpolation-filters="sRGB">
            <feFlood flood-opacity="0" result="BackgroundImageFix"/>
            <feGaussianBlur in="BackgroundImage" stdDeviation=".5"/>
            <feComposite in2="SourceAlpha" operator="in" result="effect1_backgroundBlur_72_1359"/>
            <feBlend in="SourceGraphic" in2="effect1_backgroundBlur_72_1359" result="shape"/>
        </filter>
    </defs>
</svg>
