<svg width="140" height="36" viewBox="0 0 140 36" fill="none" xmlns="http://www.w3.org/2000/svg">
    <path d="M37.64 31.82c-1.124.47-2.257.89-3.398 1.266-1.14.375-2.32.695-3.539.96a31.713 31.713 0 0 1-3.867.634c-1.344.14-2.79.21-4.336.21-3.281 0-6.305-.35-9.07-1.054-2.75-.703-5.125-1.758-7.125-3.164-1.985-1.422-3.532-3.188-4.64-5.297C.554 23.25 0 20.773 0 17.945c0-2.828.555-5.297 1.664-7.406a14.818 14.818 0 0 1 4.64-5.297c2-1.422 4.376-2.484 7.126-3.187C16.195 1.352 19.219 1 22.5 1c1.547 0 2.992.07 4.336.21 1.36.142 2.648.353 3.867.634 1.219.265 2.399.586 3.54.96 1.14.376 2.273.798 3.398 1.266v7.828a58.81 58.81 0 0 0-2.813-1.43A23.19 23.19 0 0 0 31.57 9.18a26.146 26.146 0 0 0-3.914-.938c-1.422-.25-3.023-.375-4.804-.375-2.735 0-5.008.281-6.82.844-1.798.562-3.235 1.312-4.313 2.25-1.078.937-1.836 2.016-2.274 3.234a10.889 10.889 0 0 0-.656 3.75c0 .86.094 1.711.281 2.555.188.828.5 1.617.938 2.367a8.67 8.67 0 0 0 1.71 2.04c.704.624 1.579 1.163 2.626 1.616 1.047.454 2.265.813 3.656 1.079 1.406.25 3.023.375 4.852.375 1.78 0 3.382-.11 4.804-.329a28.294 28.294 0 0 0 3.914-.914 25.304 25.304 0 0 0 3.258-1.265 58.575 58.575 0 0 0 2.813-1.477v7.828z" fill="url(#zyj73ur9ta)"/>
    <path d="M45.75 34.023V1.82h8.695V26.97h23.508v7.054H45.75z" fill="url(#7qt07kbrdb)"/>
    <path d="M84.938 34.023V1.82h8.695v32.203h-8.695z" fill="url(#83kyehe8gc)"/>
    <path d="M139.922 12.813c0 1.609-.234 3.093-.703 4.453a8.635 8.635 0 0 1-2.274 3.492c-1.031.969-2.375 1.726-4.031 2.273-1.656.547-3.672.82-6.047.82H112.43v10.172h-8.696V1.82h23.133c2.375 0 4.391.274 6.047.82 1.656.532 3 1.29 4.031 2.274a8.452 8.452 0 0 1 2.274 3.469c.469 1.344.703 2.82.703 4.43zm-8.789.14c0-.75-.11-1.39-.328-1.922a2.8 2.8 0 0 0-1.032-1.336c-.484-.343-1.117-.593-1.898-.75-.781-.172-1.742-.258-2.883-.258H112.43v8.297h12.562c1.141 0 2.102-.062 2.883-.187.781-.14 1.414-.367 1.898-.68a2.7 2.7 0 0 0 1.032-1.265c.218-.516.328-1.149.328-1.899z" fill="url(#7uk59q7ugd)"/>
    <defs>
        <linearGradient id="zyj73ur9ta" x1="-100.277" y1="-23.006" x2="-73.54" y2="86.846" gradientUnits="userSpaceOnUse">
            <stop stop-color="#82FF96"/>
            <stop offset="1" stop-color="#7CFFFF"/>
        </linearGradient>
        <linearGradient id="7qt07kbrdb" x1="-100.277" y1="-23.006" x2="-73.54" y2="86.846" gradientUnits="userSpaceOnUse">
            <stop stop-color="#82FF96"/>
            <stop offset="1" stop-color="#7CFFFF"/>
        </linearGradient>
        <linearGradient id="83kyehe8gc" x1="-100.277" y1="-23.006" x2="-73.54" y2="86.846" gradientUnits="userSpaceOnUse">
            <stop stop-color="#82FF96"/>
            <stop offset="1" stop-color="#7CFFFF"/>
        </linearGradient>
        <linearGradient id="7uk59q7ugd" x1="-100.277" y1="-23.006" x2="-73.54" y2="86.846" gradientUnits="userSpaceOnUse">
            <stop stop-color="#82FF96"/>
            <stop offset="1" stop-color="#7CFFFF"/>
        </linearGradient>
    </defs>
</svg>
