<svg width="20" height="20" viewBox="0 0 20 20" fill="none" xmlns="http://www.w3.org/2000/svg">
    <path fill-rule="evenodd" clip-rule="evenodd" d="M7.813 7.5a.937.937 0 1 0-1.875 0v.625a.937.937 0 1 0 1.875 0V7.5zm1.25.625a.937.937 0 1 1 1.874 0v.997l.923.791a.937.937 0 1 1-1.22 1.424l-1.25-1.072a.938.938 0 0 1-.328-.711V8.125zm4.062-1.563c.518 0 .938.42.938.938v.625a.937.937 0 1 1-1.876 0V7.5c0-.518.42-.938.938-.938zm-4.704 5.986a.938.938 0 1 0-.592 1.779l.096.032a6.563 6.563 0 0 0 4.15 0l.097-.032a.938.938 0 0 0-.594-1.779l-.096.032c-.962.32-2.002.32-2.964 0l-.097-.032z" fill="#2D8093"/>
    <circle cx="10" cy="10" r="7.188" stroke="#2D8093" stroke-width="1.875"/>
</svg>
