<svg width="32" height="32" viewBox="0 0 32 32" fill="none" xmlns="http://www.w3.org/2000/svg">
    <path fill-rule="evenodd" clip-rule="evenodd" d="M10.042 8.376a2.024 2.024 0 0 1-.372-.121l-.023-.01-.853-.385-.625-.282a2 2 0 0 0-2.555.823l-1.388 2.405a2 2 0 0 0 .565 2.624l.557.4.76.546.02.015a2.022 2.022 0 0 1 .503.538 2.01 2.01 0 0 1-.212 2.42 2.022 2.022 0 0 1-.291.26l-.02.015-.76.546-.557.4a2 2 0 0 0-.565 2.625l1.388 2.404a2 2 0 0 0 2.555.823l.625-.282.853-.385.023-.01a2.024 2.024 0 0 1 .718-.167 2.01 2.01 0 0 1 1.989 1.394c.038.121.066.25.08.382l.003.025.093.931.068.683a2 2 0 0 0 1.99 1.8h2.777a2 2 0 0 0 1.99-1.8l.069-.683.093-.93.003-.026a2.026 2.026 0 0 1 .214-.704 2.01 2.01 0 0 1 2.201-1.026c.125.027.25.068.372.121l.023.01.853.385.625.282a2 2 0 0 0 2.555-.823l1.388-2.405a2 2 0 0 0-.565-2.623l-.556-.4-.76-.547-.02-.015a2.02 2.02 0 0 1-.504-.538 2.01 2.01 0 0 1 .212-2.42 2.02 2.02 0 0 1 .292-.26l.02-.015.76-.546.556-.4a2 2 0 0 0 .565-2.624L26.386 8.4a2 2 0 0 0-2.555-.823l-.625.282-.853.385-.023.01a2.027 2.027 0 0 1-.717.167 2.01 2.01 0 0 1-1.99-1.394 2.018 2.018 0 0 1-.08-.382l-.003-.025-.093-.931-.068-.683a2 2 0 0 0-1.99-1.8h-2.777a2 2 0 0 0-1.99 1.8l-.069.683-.093.93-.003.026a2.019 2.019 0 0 1-.214.705 2.01 2.01 0 0 1-2.201 1.025zM16 21a5 5 0 1 0 0-10 5 5 0 0 0 0 10z" fill="#fff"/>
</svg>
