<svg width="32" height="32" viewBox="0 0 32 32" fill="none" xmlns="http://www.w3.org/2000/svg">
    <g filter="url(#d0f58dq2ua)">
        <path fill-rule="evenodd" clip-rule="evenodd" d="M23 19.141A9.97 9.97 0 0 0 26 12c0-5.523-4.477-10-10-10S6 6.477 6 12a9.97 9.97 0 0 0 3 7.141v8.916a1 1 0 0 0 1.581.814l4.838-3.456a1 1 0 0 1 1.162 0l4.838 3.456A1 1 0 0 0 23 28.056V19.14z" fill="#232B3E"/>
    </g>
    <circle cx="16" cy="12" r="7" fill="url(#zp7b9k94nb)"/>
    <defs>
        <linearGradient id="zp7b9k94nb" x1="7.4" y1="2" x2="33.4" y2="32.5" gradientUnits="userSpaceOnUse">
            <stop stop-color="#7CFFFF"/>
            <stop offset="1" stop-color="#82FF96"/>
        </linearGradient>
        <filter id="d0f58dq2ua" x="5" y="1" width="22" height="29.059" filterUnits="userSpaceOnUse" color-interpolation-filters="sRGB">
            <feFlood flood-opacity="0" result="BackgroundImageFix"/>
            <feGaussianBlur in="BackgroundImage" stdDeviation=".5"/>
            <feComposite in2="SourceAlpha" operator="in" result="effect1_backgroundBlur_67_968"/>
            <feBlend in="SourceGraphic" in2="effect1_backgroundBlur_67_968" result="shape"/>
        </filter>
    </defs>
</svg>
