<svg width="32" height="32" viewBox="0 0 32 32" fill="none" xmlns="http://www.w3.org/2000/svg">
    <g opacity=".3">
        <g filter="url(#lrlcv4syca)">
            <path fill-rule="evenodd" clip-rule="evenodd" d="M23 19.141A9.97 9.97 0 0 0 26 12c0-5.523-4.477-10-10-10S6 6.477 6 12a9.97 9.97 0 0 0 3 7.141v8.916a1 1 0 0 0 1.581.814l4.838-3.456a1 1 0 0 1 1.162 0l4.838 3.456A1 1 0 0 0 23 28.056V19.14z" fill="#232B3E"/>
        </g>
        <circle cx="16" cy="12" r="7" fill="#FFFFFF"/>
    </g>
    <defs>
        <filter id="lrlcv4syca" x="5" y="1" width="22" height="29.059" filterUnits="userSpaceOnUse" color-interpolation-filters="sRGB">
            <feFlood flood-opacity="0" result="BackgroundImageFix"/>
            <feGaussianBlur in="BackgroundImage" stdDeviation=".5"/>
            <feComposite in2="SourceAlpha" operator="in" result="effect1_backgroundBlur_67_967"/>
            <feBlend in="SourceGraphic" in2="effect1_backgroundBlur_67_967" result="shape"/>
        </filter>
    </defs>
</svg>
